<?xml version="1.0" encoding="utf-8"?>
<svg xmlns="http://www.w3.org/2000/svg" xmlns:xlink="http://www.w3.org/1999/xlink" width="600" height="400" viewBox="0 0 2400 1600">
<defs>
  <clipPath id="clip080">
    <rect x="0" y="0" width="2400" height="1600"/>
  </clipPath>
</defs>
<path clip-path="url(#clip080)" d="M0 1600 L2400 1600 L2400 8.88178e-14 L0 8.88178e-14  Z" fill="#ffffff" fill-rule="evenodd" fill-opacity="1"/>
<defs>
  <clipPath id="clip081">
    <rect x="480" y="0" width="1681" height="1600"/>
  </clipPath>
</defs>
<path clip-path="url(#clip080)" d="M312.089 1404.17 L1669.01 1404.17 L1669.01 47.2441 L312.089 47.2441  Z" fill="#ffffff" fill-rule="evenodd" fill-opacity="1"/>
<defs>
  <clipPath id="clip082">
    <rect x="312" y="47" width="1358" height="1358"/>
  </clipPath>
</defs>
<polyline clip-path="url(#clip082)" style="stroke:#000000; stroke-linecap:round; stroke-linejoin:round; stroke-width:2; stroke-opacity:0.1; fill:none" points="312.089,1404.17 312.089,47.2441 "/>
<polyline clip-path="url(#clip082)" style="stroke:#000000; stroke-linecap:round; stroke-linejoin:round; stroke-width:2; stroke-opacity:0.1; fill:none" points="764.396,1404.17 764.396,47.2441 "/>
<polyline clip-path="url(#clip082)" style="stroke:#000000; stroke-linecap:round; stroke-linejoin:round; stroke-width:2; stroke-opacity:0.1; fill:none" points="1216.7,1404.17 1216.7,47.2441 "/>
<polyline clip-path="url(#clip082)" style="stroke:#000000; stroke-linecap:round; stroke-linejoin:round; stroke-width:2; stroke-opacity:0.1; fill:none" points="1669.01,1404.17 1669.01,47.2441 "/>
<polyline clip-path="url(#clip082)" style="stroke:#000000; stroke-linecap:round; stroke-linejoin:round; stroke-width:2; stroke-opacity:0.1; fill:none" points="312.089,1404.17 1669.01,1404.17 "/>
<polyline clip-path="url(#clip082)" style="stroke:#000000; stroke-linecap:round; stroke-linejoin:round; stroke-width:2; stroke-opacity:0.1; fill:none" points="312.089,951.858 1669.01,951.858 "/>
<polyline clip-path="url(#clip082)" style="stroke:#000000; stroke-linecap:round; stroke-linejoin:round; stroke-width:2; stroke-opacity:0.1; fill:none" points="312.089,499.551 1669.01,499.551 "/>
<polyline clip-path="url(#clip082)" style="stroke:#000000; stroke-linecap:round; stroke-linejoin:round; stroke-width:2; stroke-opacity:0.1; fill:none" points="312.089,47.2441 1669.01,47.2441 "/>
<polyline clip-path="url(#clip080)" style="stroke:#000000; stroke-linecap:round; stroke-linejoin:round; stroke-width:4; stroke-opacity:1; fill:none" points="312.089,1404.17 1669.01,1404.17 "/>
<polyline clip-path="url(#clip080)" style="stroke:#000000; stroke-linecap:round; stroke-linejoin:round; stroke-width:4; stroke-opacity:1; fill:none" points="312.089,1404.17 312.089,1385.27 "/>
<polyline clip-path="url(#clip080)" style="stroke:#000000; stroke-linecap:round; stroke-linejoin:round; stroke-width:4; stroke-opacity:1; fill:none" points="764.396,1404.17 764.396,1385.27 "/>
<polyline clip-path="url(#clip080)" style="stroke:#000000; stroke-linecap:round; stroke-linejoin:round; stroke-width:4; stroke-opacity:1; fill:none" points="1216.7,1404.17 1216.7,1385.27 "/>
<polyline clip-path="url(#clip080)" style="stroke:#000000; stroke-linecap:round; stroke-linejoin:round; stroke-width:4; stroke-opacity:1; fill:none" points="1669.01,1404.17 1669.01,1385.27 "/>
<path clip-path="url(#clip080)" d="M312.089 1435.08 Q308.478 1435.08 306.649 1438.65 Q304.843 1442.19 304.843 1449.32 Q304.843 1456.43 306.649 1459.99 Q308.478 1463.53 312.089 1463.53 Q315.723 1463.53 317.529 1459.99 Q319.357 1456.43 319.357 1449.32 Q319.357 1442.19 317.529 1438.65 Q315.723 1435.08 312.089 1435.08 M312.089 1431.38 Q317.899 1431.38 320.954 1435.99 Q324.033 1440.57 324.033 1449.32 Q324.033 1458.05 320.954 1462.65 Q317.899 1467.24 312.089 1467.24 Q306.279 1467.24 303.2 1462.65 Q300.144 1458.05 300.144 1449.32 Q300.144 1440.57 303.2 1435.99 Q306.279 1431.38 312.089 1431.38 Z" fill="#000000" fill-rule="nonzero" fill-opacity="1" /><path clip-path="url(#clip080)" d="M754.778 1462.63 L762.417 1462.63 L762.417 1436.26 L754.107 1437.93 L754.107 1433.67 L762.371 1432.01 L767.046 1432.01 L767.046 1462.63 L774.685 1462.63 L774.685 1466.57 L754.778 1466.57 L754.778 1462.63 Z" fill="#000000" fill-rule="nonzero" fill-opacity="1" /><path clip-path="url(#clip080)" d="M1211.36 1462.63 L1227.68 1462.63 L1227.68 1466.57 L1205.73 1466.57 L1205.73 1462.63 Q1208.39 1459.88 1212.98 1455.25 Q1217.58 1450.59 1218.76 1449.25 Q1221.01 1446.73 1221.89 1444.99 Q1222.79 1443.23 1222.79 1441.54 Q1222.79 1438.79 1220.85 1437.05 Q1218.93 1435.32 1215.82 1435.32 Q1213.62 1435.32 1211.17 1436.08 Q1208.74 1436.84 1205.96 1438.39 L1205.96 1433.67 Q1208.79 1432.54 1211.24 1431.96 Q1213.69 1431.38 1215.73 1431.38 Q1221.1 1431.38 1224.3 1434.07 Q1227.49 1436.75 1227.49 1441.24 Q1227.49 1443.37 1226.68 1445.29 Q1225.89 1447.19 1223.79 1449.78 Q1223.21 1450.45 1220.11 1453.67 Q1217 1456.87 1211.36 1462.63 Z" fill="#000000" fill-rule="nonzero" fill-opacity="1" /><path clip-path="url(#clip080)" d="M1673.26 1447.93 Q1676.61 1448.65 1678.49 1450.92 Q1680.39 1453.19 1680.39 1456.52 Q1680.39 1461.64 1676.87 1464.44 Q1673.35 1467.24 1666.87 1467.24 Q1664.69 1467.24 1662.38 1466.8 Q1660.09 1466.38 1657.63 1465.52 L1657.63 1461.01 Q1659.58 1462.14 1661.89 1462.72 Q1664.21 1463.3 1666.73 1463.3 Q1671.13 1463.3 1673.42 1461.57 Q1675.73 1459.83 1675.73 1456.52 Q1675.73 1453.46 1673.58 1451.75 Q1671.45 1450.01 1667.63 1450.01 L1663.61 1450.01 L1663.61 1446.17 L1667.82 1446.17 Q1671.27 1446.17 1673.1 1444.81 Q1674.92 1443.42 1674.92 1440.82 Q1674.92 1438.16 1673.03 1436.75 Q1671.15 1435.32 1667.63 1435.32 Q1665.71 1435.32 1663.51 1435.73 Q1661.31 1436.15 1658.67 1437.03 L1658.67 1432.86 Q1661.34 1432.12 1663.65 1431.75 Q1665.99 1431.38 1668.05 1431.38 Q1673.37 1431.38 1676.48 1433.81 Q1679.58 1436.22 1679.58 1440.34 Q1679.58 1443.21 1677.93 1445.2 Q1676.29 1447.17 1673.26 1447.93 Z" fill="#000000" fill-rule="nonzero" fill-opacity="1" /><path clip-path="url(#clip080)" d="M972.147 1514.85 Q972.147 1518.46 969.474 1521.78 Q966.833 1525.09 962.518 1527.12 Q958.234 1529.12 953.629 1529.12 L942.421 1529.12 L938.331 1545.61 Q938.299 1545.71 938.202 1546.12 Q938.106 1546.51 938.106 1546.74 Q938.106 1547.54 939.104 1547.73 Q940.135 1547.93 942.421 1547.93 Q943.903 1547.93 944.128 1548.19 Q944.257 1548.35 944.257 1548.64 Q944.257 1549.09 944.128 1549.41 Q943.999 1549.7 943.742 1549.8 Q943.516 1549.89 943.355 1549.92 Q943.194 1549.96 942.937 1549.96 Q942.26 1549.96 940.811 1549.89 Q939.394 1549.83 938.653 1549.83 L934.434 1549.76 L926.061 1549.96 Q925.062 1549.96 925.062 1549.15 Q925.062 1548.54 925.32 1548.28 Q925.578 1547.99 925.868 1547.96 Q926.157 1547.93 926.898 1547.93 Q928.508 1547.93 929.475 1547.83 Q930.441 1547.73 931.053 1547.61 Q931.697 1547.45 932.019 1546.99 Q932.373 1546.54 932.534 1546.16 Q932.695 1545.74 932.921 1544.8 L941.745 1509.38 Q942.003 1508.31 942.003 1508.15 Q942.003 1507.61 941.681 1507.41 Q941.391 1507.19 940.553 1507.09 Q938.943 1506.96 937.719 1506.96 Q936.914 1506.96 936.592 1506.93 Q936.302 1506.9 936.045 1506.74 Q935.819 1506.54 935.819 1506.16 Q935.819 1505.55 936.077 1505.29 Q936.367 1505 936.689 1504.97 Q937.011 1504.9 937.784 1504.9 L959.168 1504.9 Q965.32 1504.9 968.734 1507.83 Q972.147 1510.76 972.147 1514.85 M966.028 1513.27 Q966.028 1506.96 957.043 1506.96 L950.731 1506.96 Q948.637 1506.96 948.122 1507.35 Q947.607 1507.7 947.156 1509.47 L942.679 1527.41 L951.987 1527.41 Q958.234 1527.41 962.131 1523.9 Q963.903 1522.29 964.966 1518.94 Q966.028 1515.59 966.028 1513.27 Z" fill="#000000" fill-rule="nonzero" fill-opacity="1" /><path clip-path="url(#clip080)" d="M997.619 1483.79 Q997.619 1484.13 997.371 1484.63 Q997.146 1485.08 996.673 1485.37 Q996.222 1485.64 995.726 1485.64 Q995.568 1485.64 995.207 1485.55 Q994.598 1485.28 993.652 1484.67 Q992.705 1484.06 991.848 1483.68 Q991.014 1483.27 990.09 1483.23 Q989.278 1483.23 988.602 1483.52 Q987.993 1483.86 987.587 1484.58 Q987.407 1484.87 987.407 1485.37 Q987.407 1486.07 987.79 1486.99 Q988.173 1487.92 988.962 1489.11 Q989.774 1490.31 990.36 1491.12 Q990.946 1491.91 991.961 1493.21 Q992.051 1493.33 992.096 1493.39 Q992.141 1493.44 992.209 1493.55 Q992.276 1493.64 992.344 1493.71 Q994.486 1496.39 995.027 1499.35 Q995.162 1500.38 995.162 1501.47 Q995.162 1503.63 994.508 1506.18 Q993.945 1508.5 992.75 1510.51 Q991.555 1512.49 989.752 1513.8 Q987.971 1515.1 986.032 1515.1 Q984.115 1515.1 982.537 1514.27 Q980.959 1513.41 980.012 1511.95 Q978.727 1510.01 978.727 1507.33 Q978.727 1505.82 979.088 1504.53 Q979.584 1502.48 980.756 1500.59 Q981.929 1498.69 983.62 1497.23 Q986.19 1495.06 988.985 1494.45 Q987.677 1491.97 986.911 1490.06 Q986.167 1488.12 986.167 1486.47 Q986.167 1485.03 986.708 1484.11 Q987.181 1483.11 988.151 1482.55 Q988.962 1482.06 990.135 1481.81 Q990.856 1481.72 991.33 1481.72 Q992.93 1481.72 996.65 1482.6 Q997.619 1482.82 997.619 1483.79 M991.983 1503.31 Q991.983 1501.94 991.758 1501.01 Q991.33 1498.76 989.616 1495.65 L989.481 1495.42 Q987.294 1496.06 985.513 1497.97 Q983.281 1500.32 982.154 1504.76 Q981.545 1507.24 981.545 1508.63 Q981.545 1510.15 982.109 1511.45 Q982.65 1512.67 983.665 1513.37 Q984.702 1514.07 986.077 1514.07 Q987.114 1514.07 988.016 1513.48 Q988.917 1512.87 989.571 1511.81 Q990.225 1510.75 990.676 1509.6 Q991.149 1508.43 991.51 1507.06 Q991.983 1505.21 991.983 1503.31 Z" fill="#000000" fill-rule="nonzero" fill-opacity="1" /><path clip-path="url(#clip080)" d="M1001.72 1553.13 Q1001.72 1554.39 1000.93 1555.11 Q1000.14 1555.81 999.243 1555.81 Q998.386 1555.81 997.935 1555.31 Q997.484 1554.82 997.484 1554.19 Q997.484 1553.33 998.115 1552.58 Q998.747 1551.84 999.693 1551.68 Q998.769 1551.1 997.394 1551.1 Q996.492 1551.1 995.703 1551.57 Q994.937 1552.04 994.463 1552.65 Q994.012 1553.26 993.607 1554.14 Q993.223 1555 993.065 1555.52 Q992.93 1556.01 992.818 1556.55 L991.239 1562.86 Q990.473 1565.86 990.473 1566.92 Q990.473 1568.23 991.104 1569.11 Q991.735 1569.97 992.998 1569.97 Q993.494 1569.97 994.057 1569.83 Q994.621 1569.67 995.342 1569.27 Q996.086 1568.84 996.74 1568.21 Q997.417 1567.55 998.07 1566.45 Q998.724 1565.34 999.152 1563.92 Q999.288 1563.43 999.739 1563.43 Q1000.3 1563.43 1000.3 1563.88 Q1000.3 1564.26 999.987 1565.07 Q999.693 1565.86 999.04 1566.9 Q998.408 1567.91 997.574 1568.84 Q996.74 1569.74 995.5 1570.37 Q994.26 1571 992.908 1571 Q990.969 1571 989.684 1569.97 Q988.399 1568.93 987.925 1567.49 Q987.813 1567.69 987.655 1567.96 Q987.497 1568.23 987.024 1568.84 Q986.573 1569.43 986.054 1569.88 Q985.536 1570.3 984.724 1570.64 Q983.935 1571 983.078 1571 Q981.996 1571 981.027 1570.69 Q980.08 1570.37 979.404 1569.65 Q978.727 1568.93 978.727 1567.94 Q978.727 1566.83 979.471 1566.07 Q980.238 1565.28 981.275 1565.28 Q981.929 1565.28 982.447 1565.66 Q982.988 1566.04 982.988 1566.88 Q982.988 1567.8 982.357 1568.5 Q981.726 1569.2 980.824 1569.38 Q981.748 1569.97 983.124 1569.97 Q984.611 1569.97 985.784 1568.66 Q986.956 1567.35 987.52 1565.16 Q988.917 1559.91 989.458 1557.57 Q989.999 1555.2 989.999 1554.19 Q989.999 1553.24 989.752 1552.58 Q989.504 1551.93 989.075 1551.64 Q988.669 1551.32 988.286 1551.21 Q987.925 1551.1 987.52 1551.1 Q986.843 1551.1 986.077 1551.37 Q985.333 1551.64 984.431 1552.27 Q983.552 1552.88 982.718 1554.14 Q981.884 1555.4 981.32 1557.14 Q981.207 1557.66 980.711 1557.66 Q980.17 1557.63 980.17 1557.18 Q980.17 1556.8 980.463 1556.01 Q980.779 1555.2 981.41 1554.19 Q982.064 1553.17 982.898 1552.27 Q983.755 1551.34 984.995 1550.71 Q986.257 1550.08 987.61 1550.08 Q988.219 1550.08 988.805 1550.22 Q989.413 1550.33 990.135 1550.67 Q990.879 1551.01 991.532 1551.75 Q992.186 1552.49 992.592 1553.58 Q992.863 1553.06 993.223 1552.56 Q993.607 1552.07 994.193 1551.46 Q994.801 1550.83 995.636 1550.47 Q996.492 1550.08 997.439 1550.08 Q998.363 1550.08 999.265 1550.33 Q1000.17 1550.56 1000.93 1551.3 Q1001.72 1552.02 1001.72 1553.13 Z" fill="#000000" fill-rule="nonzero" fill-opacity="1" /><path clip-path="url(#clip080)" d="M1004.87 1581.37 Q1004.87 1581.15 1005.05 1580.65 L1021.35 1537.1 Q1021.35 1537.05 1021.47 1536.8 Q1021.58 1536.56 1021.65 1536.4 Q1021.72 1536.22 1021.85 1536.08 Q1022.01 1535.95 1022.19 1535.95 Q1022.64 1535.95 1022.64 1536.51 Q1022.64 1536.56 1022.5 1537.1 L1006.16 1580.7 Q1005.89 1581.49 1005.71 1581.71 Q1005.55 1581.94 1005.28 1581.94 Q1004.87 1581.94 1004.87 1581.37 Z" fill="#000000" fill-rule="nonzero" fill-opacity="1" /><path clip-path="url(#clip080)" d="M1047.31 1550.53 Q1047.31 1550.69 1046.92 1551.37 Q1046.56 1552.02 1045.23 1553.67 Q1043.9 1555.31 1041.92 1557.23 Q1041.18 1557.97 1040.05 1559.01 Q1038.92 1560.05 1038.15 1560.72 L1037.39 1561.4 Q1034.46 1563.88 1031.89 1566.65 Q1032.07 1566.58 1032.38 1566.56 Q1032.7 1566.52 1032.92 1566.52 L1033.15 1566.52 Q1034.32 1566.52 1036.37 1567.31 Q1038.18 1567.89 1039.1 1567.89 Q1040 1567.89 1041 1567.58 Q1041.99 1567.26 1043.07 1566.34 Q1044.15 1565.41 1044.65 1564.01 Q1044.74 1563.79 1044.78 1563.72 Q1044.83 1563.63 1044.96 1563.54 Q1045.1 1563.43 1045.28 1563.43 Q1045.53 1563.43 1045.68 1563.56 Q1045.84 1563.7 1045.84 1563.88 Q1045.84 1564.29 1045.53 1565.1 Q1045.23 1565.91 1044.58 1566.92 Q1043.95 1567.94 1043.11 1568.86 Q1042.3 1569.76 1041.09 1570.39 Q1039.87 1571 1038.58 1571 Q1037.66 1571 1036.98 1570.55 Q1036.31 1570.12 1035.63 1569.29 Q1034.71 1568.23 1034.21 1567.89 Q1033.71 1567.53 1032.95 1567.53 Q1030.9 1567.53 1029.02 1570.39 Q1028.82 1570.8 1028.69 1570.89 Q1028.57 1571 1028.3 1571 Q1027.74 1570.98 1027.74 1570.53 Q1027.74 1570.35 1028.24 1569.56 Q1028.75 1568.75 1029.9 1567.33 Q1031.08 1565.91 1032.5 1564.49 L1036.64 1560.61 Q1041.24 1556.73 1043.07 1554.55 Q1042.3 1554.55 1041.96 1554.52 Q1041.65 1554.5 1041.02 1554.37 Q1040.39 1554.21 1039.51 1553.87 Q1037.46 1553.17 1036.6 1553.17 Q1036.37 1553.17 1036.13 1553.19 Q1035.88 1553.22 1035.31 1553.33 Q1034.77 1553.44 1034.32 1553.67 Q1033.87 1553.87 1033.4 1554.32 Q1032.92 1554.75 1032.68 1555.34 Q1032.61 1555.52 1032.56 1555.61 Q1032.52 1555.7 1032.38 1555.79 Q1032.27 1555.85 1032.09 1555.85 Q1031.82 1555.85 1031.66 1555.7 Q1031.53 1555.54 1031.53 1555.34 Q1031.53 1554.93 1031.93 1554.1 Q1032.34 1553.26 1033.01 1552.36 Q1033.69 1551.43 1034.8 1550.76 Q1035.9 1550.08 1037.12 1550.08 Q1037.84 1550.08 1038.45 1550.4 Q1039.08 1550.71 1039.39 1551.05 Q1039.73 1551.37 1040.3 1552.07 Q1040.77 1552.61 1041 1552.83 Q1041.22 1553.06 1041.67 1553.31 Q1042.15 1553.53 1042.66 1553.53 Q1043.52 1553.53 1044.31 1552.88 Q1045.1 1552.2 1046.11 1550.58 Q1046.38 1550.08 1046.81 1550.08 Q1047.31 1550.08 1047.31 1550.53 Z" fill="#000000" fill-rule="nonzero" fill-opacity="1" /><polyline clip-path="url(#clip080)" style="stroke:#000000; stroke-linecap:round; stroke-linejoin:round; stroke-width:4; stroke-opacity:1; fill:none" points="312.089,1404.17 312.089,47.2441 "/>
<polyline clip-path="url(#clip080)" style="stroke:#000000; stroke-linecap:round; stroke-linejoin:round; stroke-width:4; stroke-opacity:1; fill:none" points="312.089,1404.17 323.963,1404.17 "/>
<polyline clip-path="url(#clip080)" style="stroke:#000000; stroke-linecap:round; stroke-linejoin:round; stroke-width:4; stroke-opacity:1; fill:none" points="312.089,951.858 323.963,951.858 "/>
<polyline clip-path="url(#clip080)" style="stroke:#000000; stroke-linecap:round; stroke-linejoin:round; stroke-width:4; stroke-opacity:1; fill:none" points="312.089,499.551 323.963,499.551 "/>
<polyline clip-path="url(#clip080)" style="stroke:#000000; stroke-linecap:round; stroke-linejoin:round; stroke-width:4; stroke-opacity:1; fill:none" points="312.089,47.2441 323.963,47.2441 "/>
<path clip-path="url(#clip080)" d="M264.144 1389.96 Q260.533 1389.96 258.705 1393.53 Q256.899 1397.07 256.899 1404.2 Q256.899 1411.31 258.705 1414.87 Q260.533 1418.41 264.144 1418.41 Q267.779 1418.41 269.584 1414.87 Q271.413 1411.31 271.413 1404.2 Q271.413 1397.07 269.584 1393.53 Q267.779 1389.96 264.144 1389.96 M264.144 1386.26 Q269.955 1386.26 273.01 1390.87 Q276.089 1395.45 276.089 1404.2 Q276.089 1412.93 273.01 1417.53 Q269.955 1422.12 264.144 1422.12 Q258.334 1422.12 255.256 1417.53 Q252.2 1412.93 252.2 1404.2 Q252.2 1395.45 255.256 1390.87 Q258.334 1386.26 264.144 1386.26 Z" fill="#000000" fill-rule="nonzero" fill-opacity="1" /><path clip-path="url(#clip080)" d="M256.182 965.203 L263.82 965.203 L263.82 938.838 L255.51 940.504 L255.51 936.245 L263.774 934.578 L268.45 934.578 L268.45 965.203 L276.089 965.203 L276.089 969.138 L256.182 969.138 L256.182 965.203 Z" fill="#000000" fill-rule="nonzero" fill-opacity="1" /><path clip-path="url(#clip080)" d="M259.769 512.896 L276.089 512.896 L276.089 516.831 L254.144 516.831 L254.144 512.896 Q256.807 510.141 261.39 505.512 Q265.996 500.859 267.177 499.517 Q269.422 496.993 270.302 495.257 Q271.205 493.498 271.205 491.808 Q271.205 489.054 269.26 487.318 Q267.339 485.581 264.237 485.581 Q262.038 485.581 259.584 486.345 Q257.154 487.109 254.376 488.66 L254.376 483.938 Q257.2 482.804 259.654 482.225 Q262.107 481.646 264.144 481.646 Q269.515 481.646 272.709 484.331 Q275.904 487.017 275.904 491.507 Q275.904 493.637 275.093 495.558 Q274.306 497.456 272.2 500.049 Q271.621 500.72 268.519 503.938 Q265.418 507.132 259.769 512.896 Z" fill="#000000" fill-rule="nonzero" fill-opacity="1" /><path clip-path="url(#clip080)" d="M268.959 45.8899 Q272.316 46.6075 274.191 48.876 Q276.089 51.1445 276.089 54.4779 Q276.089 59.5936 272.57 62.3945 Q269.052 65.1954 262.57 65.1954 Q260.394 65.1954 258.08 64.7556 Q255.788 64.3389 253.334 63.4824 L253.334 58.9686 Q255.279 60.1028 257.594 60.6815 Q259.908 61.2602 262.431 61.2602 Q266.83 61.2602 269.121 59.5241 Q271.436 57.788 271.436 54.4779 Q271.436 51.4223 269.283 49.7094 Q267.154 47.9733 263.334 47.9733 L259.306 47.9733 L259.306 44.1307 L263.519 44.1307 Q266.968 44.1307 268.797 42.765 Q270.626 41.3761 270.626 38.7835 Q270.626 36.1215 268.728 34.7094 Q266.853 33.2743 263.334 33.2743 Q261.413 33.2743 259.214 33.6909 Q257.015 34.1076 254.376 34.9872 L254.376 30.8206 Q257.038 30.0798 259.353 29.7095 Q261.691 29.3391 263.751 29.3391 Q269.075 29.3391 272.177 31.7696 Q275.279 34.177 275.279 38.2974 Q275.279 41.1677 273.635 43.1585 Q271.992 45.1261 268.959 45.8899 Z" fill="#000000" fill-rule="nonzero" fill-opacity="1" /><path clip-path="url(#clip080)" d="M159.206 742.231 Q162.813 742.231 166.13 744.904 Q169.448 747.545 171.477 751.861 Q173.473 756.144 173.473 760.75 L173.473 771.957 L189.963 776.047 Q190.059 776.08 190.478 776.176 Q190.864 776.273 191.09 776.273 Q191.895 776.273 192.088 775.275 Q192.282 774.244 192.282 771.957 Q192.282 770.476 192.539 770.25 Q192.7 770.122 192.99 770.122 Q193.441 770.122 193.763 770.25 Q194.053 770.379 194.149 770.637 Q194.246 770.862 194.278 771.023 Q194.31 771.184 194.31 771.442 Q194.31 772.118 194.246 773.568 Q194.182 774.985 194.182 775.725 L194.117 779.944 L194.31 788.318 Q194.31 789.316 193.505 789.316 Q192.893 789.316 192.636 789.059 Q192.346 788.801 192.314 788.511 Q192.282 788.221 192.282 787.481 Q192.282 785.87 192.185 784.904 Q192.088 783.938 191.959 783.326 Q191.798 782.682 191.348 782.36 Q190.897 782.006 190.51 781.845 Q190.092 781.684 189.158 781.458 L153.731 772.634 Q152.668 772.376 152.507 772.376 Q151.96 772.376 151.767 772.698 Q151.541 772.988 151.444 773.825 Q151.316 775.436 151.316 776.659 Q151.316 777.465 151.283 777.787 Q151.251 778.076 151.09 778.334 Q150.897 778.56 150.511 778.56 Q149.899 778.56 149.641 778.302 Q149.351 778.012 149.319 777.69 Q149.254 777.368 149.254 776.595 L149.254 755.21 Q149.254 749.059 152.185 745.645 Q155.116 742.231 159.206 742.231 M157.628 748.35 Q151.316 748.35 151.316 757.336 L151.316 763.648 Q151.316 765.742 151.702 766.257 Q152.056 766.772 153.828 767.223 L171.766 771.7 L171.766 762.392 Q171.766 756.144 168.256 752.247 Q166.646 750.476 163.296 749.413 Q159.947 748.35 157.628 748.35 Z" fill="#000000" fill-rule="nonzero" fill-opacity="1" /><path clip-path="url(#clip080)" d="M128.144 716.759 Q128.483 716.759 128.979 717.007 Q129.429 717.233 129.723 717.706 Q129.993 718.157 129.993 718.653 Q129.993 718.811 129.903 719.172 Q129.632 719.78 129.024 720.727 Q128.415 721.674 128.032 722.531 Q127.626 723.365 127.581 724.289 Q127.581 725.101 127.874 725.777 Q128.212 726.386 128.934 726.791 Q129.227 726.972 129.723 726.972 Q130.421 726.972 131.346 726.589 Q132.27 726.205 133.465 725.416 Q134.66 724.605 135.471 724.019 Q136.26 723.432 137.568 722.418 Q137.681 722.328 137.748 722.283 Q137.793 722.238 137.906 722.17 Q137.996 722.102 138.064 722.035 Q140.747 719.893 143.7 719.352 Q144.737 719.217 145.819 719.217 Q147.983 719.217 150.531 719.87 Q152.853 720.434 154.859 721.629 Q156.843 722.824 158.151 724.627 Q159.458 726.408 159.458 728.347 Q159.458 730.263 158.624 731.841 Q157.767 733.419 156.302 734.366 Q154.363 735.651 151.681 735.651 Q150.17 735.651 148.885 735.291 Q146.834 734.795 144.94 733.622 Q143.046 732.45 141.581 730.759 Q139.417 728.189 138.808 725.394 Q136.328 726.701 134.412 727.468 Q132.473 728.212 130.827 728.212 Q129.384 728.212 128.46 727.671 Q127.468 727.197 126.905 726.228 Q126.409 725.416 126.161 724.244 Q126.07 723.523 126.07 723.049 Q126.07 721.449 126.95 717.729 Q127.175 716.759 128.144 716.759 M147.668 722.395 Q146.292 722.395 145.368 722.621 Q143.114 723.049 140.003 724.762 L139.777 724.898 Q140.408 727.085 142.325 728.866 Q144.669 731.097 149.11 732.225 Q151.59 732.833 152.988 732.833 Q154.499 732.833 155.806 732.27 Q157.023 731.729 157.722 730.714 Q158.421 729.677 158.421 728.302 Q158.421 727.265 157.835 726.363 Q157.226 725.461 156.167 724.808 Q155.107 724.154 153.957 723.703 Q152.785 723.229 151.41 722.869 Q149.561 722.395 147.668 722.395 Z" fill="#000000" fill-rule="nonzero" fill-opacity="1" /><path clip-path="url(#clip080)" d="M196.194 714.347 Q196.51 714.347 197.254 714.55 L214.883 718.969 Q218.806 719.938 221.556 723.094 Q224.307 726.228 224.307 729.79 Q224.307 731.932 223.157 733.307 Q222.03 734.682 220.294 734.682 Q218.761 734.682 218.017 733.87 Q217.295 733.059 217.295 732.089 Q217.295 731.774 217.385 731.436 Q217.476 731.097 217.859 730.737 Q218.242 730.376 218.896 730.376 Q219.956 730.376 220.79 731.3 Q221.173 731.751 221.263 732.18 Q221.353 732.585 221.353 733.284 Q221.984 733.014 222.413 732.518 Q222.841 732.022 222.999 731.458 Q223.179 730.894 223.224 730.534 Q223.292 730.151 223.292 729.79 Q223.292 726.904 220.384 724.695 Q219.505 724.041 218.625 723.568 Q217.769 723.072 216.709 722.711 Q215.672 722.35 215.109 722.192 Q214.545 722.012 213.26 721.697 Q215.357 723.793 215.357 726.363 Q215.357 727.445 215.063 728.415 Q214.77 729.361 214.162 730.196 Q213.53 731.03 212.426 731.526 Q211.321 731.999 209.856 731.999 Q208.3 731.999 206.181 731.39 Q204.062 730.782 200.162 729.316 Q197.975 728.527 196.915 728.527 Q196.397 728.527 196.081 728.64 Q195.743 728.753 195.63 728.978 Q195.495 729.204 195.473 729.339 Q195.45 729.452 195.45 729.677 Q195.45 731.007 196.803 732.247 Q198.155 733.487 201.176 734.344 Q201.74 734.524 201.875 734.637 Q202.01 734.75 202.01 735.088 Q201.988 735.651 201.537 735.651 Q201.357 735.651 200.658 735.448 Q199.936 735.246 198.877 734.772 Q197.795 734.276 196.825 733.6 Q195.833 732.923 195.134 731.864 Q194.436 730.782 194.436 729.542 Q194.436 727.851 195.54 726.814 Q196.622 725.754 198.223 725.754 Q198.877 725.754 199.463 725.935 Q200.027 726.093 201.537 726.679 Q207.624 729.046 210.6 729.046 Q211.321 729.046 211.93 728.933 Q212.516 728.798 213.102 728.505 Q213.666 728.212 214.004 727.626 Q214.319 727.017 214.319 726.183 Q214.319 725.123 213.824 724.131 Q213.305 723.117 212.606 722.486 Q211.907 721.832 211.321 721.449 Q210.712 721.043 210.397 720.953 L202.101 718.878 L198.403 717.954 Q196.397 717.526 195.901 717.323 Q195.428 717.052 195.18 716.579 Q194.932 716.106 194.932 715.7 Q194.932 715.136 195.27 714.753 Q195.608 714.347 196.194 714.347 Z" fill="#000000" fill-rule="nonzero" fill-opacity="1" /><path clip-path="url(#clip080)" d="M225.727 713.255 Q225.501 713.255 225.005 713.075 L181.45 696.776 Q181.405 696.776 181.157 696.663 Q180.909 696.55 180.751 696.483 Q180.571 696.415 180.436 696.28 Q180.3 696.122 180.3 695.941 Q180.3 695.491 180.864 695.491 Q180.909 695.491 181.45 695.626 L225.05 711.97 Q225.84 712.241 226.065 712.421 Q226.29 712.579 226.29 712.85 Q226.29 713.255 225.727 713.255 Z" fill="#000000" fill-rule="nonzero" fill-opacity="1" /><path clip-path="url(#clip080)" d="M194.886 670.822 Q195.044 670.822 195.721 671.205 Q196.374 671.566 198.02 672.896 Q199.666 674.226 201.582 676.21 Q202.326 676.954 203.363 678.081 Q204.4 679.209 205.076 679.975 L205.753 680.742 Q208.233 683.672 211.005 686.242 Q210.938 686.062 210.915 685.746 Q210.87 685.431 210.87 685.205 L210.87 684.98 Q210.87 683.808 211.659 681.756 Q212.245 679.953 212.245 679.028 Q212.245 678.127 211.93 677.135 Q211.614 676.143 210.69 675.061 Q209.766 673.978 208.368 673.482 Q208.142 673.392 208.075 673.347 Q207.985 673.302 207.894 673.167 Q207.782 673.032 207.782 672.851 Q207.782 672.603 207.917 672.445 Q208.052 672.288 208.233 672.288 Q208.638 672.288 209.45 672.603 Q210.262 672.896 211.276 673.55 Q212.291 674.181 213.215 675.015 Q214.117 675.827 214.748 677.044 Q215.357 678.262 215.357 679.547 Q215.357 680.471 214.906 681.147 Q214.477 681.824 213.643 682.5 Q212.584 683.424 212.245 683.92 Q211.885 684.416 211.885 685.183 Q211.885 687.234 214.748 689.106 Q215.154 689.308 215.244 689.444 Q215.357 689.556 215.357 689.827 Q215.334 690.391 214.883 690.391 Q214.703 690.391 213.914 689.895 Q213.102 689.376 211.682 688.226 Q210.262 687.054 208.841 685.634 L204.964 681.486 Q201.086 676.887 198.899 675.061 Q198.899 675.827 198.877 676.165 Q198.854 676.481 198.719 677.112 Q198.561 677.743 198.223 678.623 Q197.524 680.674 197.524 681.531 Q197.524 681.756 197.547 682.004 Q197.569 682.252 197.682 682.816 Q197.795 683.357 198.02 683.808 Q198.223 684.259 198.674 684.732 Q199.102 685.205 199.688 685.453 Q199.869 685.521 199.959 685.566 Q200.049 685.611 200.139 685.746 Q200.207 685.859 200.207 686.04 Q200.207 686.31 200.049 686.468 Q199.891 686.603 199.688 686.603 Q199.283 686.603 198.448 686.197 Q197.614 685.792 196.713 685.115 Q195.788 684.439 195.112 683.334 Q194.436 682.23 194.436 681.012 Q194.436 680.291 194.751 679.682 Q195.067 679.051 195.405 678.735 Q195.721 678.397 196.419 677.833 Q196.961 677.36 197.186 677.135 Q197.411 676.909 197.659 676.458 Q197.885 675.985 197.885 675.466 Q197.885 674.61 197.231 673.821 Q196.555 673.032 194.932 672.017 Q194.436 671.747 194.436 671.318 Q194.436 670.822 194.886 670.822 Z" fill="#000000" fill-rule="nonzero" fill-opacity="1" /><polyline clip-path="url(#clip082)" style="stroke:#009af9; stroke-linecap:round; stroke-linejoin:round; stroke-width:4; stroke-opacity:1; fill:none" points="357.32,1401.9 379.935,1399.08 402.55,1395.12 425.166,1390.03 447.781,1383.81 470.396,1376.46 493.012,1367.98 515.627,1358.37 538.242,1347.63 560.858,1335.75 583.473,1322.75 606.088,1308.62 628.704,1293.35 651.319,1276.95 673.935,1259.43 696.55,1240.77 719.165,1220.98 741.781,1200.06 764.396,1178.01 787.011,1154.83 809.627,1130.52 832.242,1105.08 854.857,1078.5 877.473,1050.8 900.088,1021.97 922.703,992.001 945.319,960.905 967.934,928.678 990.55,895.32 1013.16,860.832 1035.78,825.212 1058.4,788.462 1081.01,750.582 1103.63,711.57 1126.24,671.428 1148.86,630.155 1171.47,587.751 1194.09,544.217 1216.7,499.551 1239.32,453.755 1261.93,406.828 1284.55,358.771 1307.16,309.582 1329.78,259.263 1352.4,207.813 1375.01,155.232 1397.63,101.521 1420.24,46.6787 1442.86,-9.2943 1465.47,-66.3981 1488.09,-124.633 1510.7,-183.998 1533.32,-244.494 1555.93,-306.121 1578.55,-368.878 1601.16,-432.767 1623.78,-497.786 1646.39,-563.936 1669.01,-631.217 "/>
<polyline clip-path="url(#clip082)" style="stroke:#e26f46; stroke-linecap:round; stroke-linejoin:round; stroke-width:4; stroke-opacity:1; fill:none" points="357.32,1201.89 379.935,1156.43 402.55,1118.1 425.166,1084.34 447.781,1053.81 470.396,1025.74 493.012,999.61 515.627,975.069 538.242,951.858 560.858,929.782 583.473,908.688 606.088,888.456 628.704,868.989 651.319,850.205 673.935,832.037 696.55,814.429 719.165,797.332 741.781,780.703 764.396,764.507 787.011,748.71 809.627,733.286 832.242,718.208 854.857,703.454 877.473,689.005 900.088,674.842 922.703,660.949 945.319,647.311 967.934,633.914 990.55,620.747 1013.16,607.797 1035.78,595.054 1058.4,582.509 1081.01,570.152 1103.63,557.976 1126.24,545.973 1148.86,534.135 1171.47,522.457 1194.09,510.931 1216.7,499.551 1239.32,488.313 1261.93,477.212 1284.55,466.241 1307.16,455.398 1329.78,444.677 1352.4,434.075 1375.01,423.587 1397.63,413.21 1420.24,402.941 1442.86,392.776 1465.47,382.712 1488.09,372.747 1510.7,362.876 1533.32,353.099 1555.93,343.411 1578.55,333.811 1601.16,324.297 1623.78,314.866 1646.39,305.515 1669.01,296.244 "/>
<polyline clip-path="url(#clip082)" style="stroke:#3da44d; stroke-linecap:round; stroke-linejoin:round; stroke-width:4; stroke-opacity:1; fill:none" points="357.32,-857.37 379.935,-103.525 402.55,273.398 425.166,499.551 447.781,650.32 470.396,758.012 493.012,838.782 515.627,901.602 538.242,951.858 560.858,992.977 583.473,1027.24 606.088,1056.24 628.704,1081.09 651.319,1102.63 673.935,1121.47 696.55,1138.1 719.165,1152.88 741.781,1166.11 764.396,1178.01 787.011,1188.78 809.627,1198.57 832.242,1207.51 854.857,1215.7 877.473,1223.24 900.088,1230.2 922.703,1236.64 945.319,1242.63 967.934,1248.2 990.55,1253.4 1013.16,1258.26 1035.78,1262.82 1058.4,1267.1 1081.01,1271.13 1103.63,1274.93 1126.24,1278.52 1148.86,1281.92 1171.47,1285.14 1194.09,1288.19 1216.7,1291.09 1239.32,1293.85 1261.93,1296.47 1284.55,1298.98 1307.16,1301.37 1329.78,1303.65 1352.4,1305.84 1375.01,1307.93 1397.63,1309.93 1420.24,1311.86 1442.86,1313.7 1465.47,1315.48 1488.09,1317.18 1510.7,1318.82 1533.32,1320.4 1555.93,1321.93 1578.55,1323.4 1601.16,1324.81 1623.78,1326.18 1646.39,1327.5 1669.01,1328.78 "/>
<polyline clip-path="url(#clip082)" style="stroke:#808080; stroke-linecap:round; stroke-linejoin:round; stroke-width:4; stroke-opacity:1; fill:none" stroke-dasharray="16, 10" points="1307.16,1042.32 884.217,1042.32 "/>
<circle clip-path="url(#clip082)" cx="1307.16" cy="1042.32" r="14.4" fill="#ff0000" fill-rule="evenodd" fill-opacity="1" stroke="#000000" stroke-opacity="1" stroke-width="3.2"/>
<circle clip-path="url(#clip082)" cx="884.217" cy="1042.32" r="14.4" fill="#0000ff" fill-rule="evenodd" fill-opacity="1" stroke="#000000" stroke-opacity="1" stroke-width="3.2"/>
<polyline clip-path="url(#clip082)" style="stroke:#808080; stroke-linecap:round; stroke-linejoin:round; stroke-width:4; stroke-opacity:1; fill:none" stroke-dasharray="16, 10" points="764.396,454.321 764.396,764.507 "/>
<circle clip-path="url(#clip082)" cx="764.396" cy="454.321" r="14.4" fill="#ff0000" fill-rule="evenodd" fill-opacity="1" stroke="#000000" stroke-opacity="1" stroke-width="3.2"/>
<circle clip-path="url(#clip082)" cx="764.396" cy="764.507" r="14.4" fill="#0000ff" fill-rule="evenodd" fill-opacity="1" stroke="#000000" stroke-opacity="1" stroke-width="3.2"/>
<polyline clip-path="url(#clip082)" style="stroke:#808080; stroke-linecap:round; stroke-linejoin:round; stroke-width:4; stroke-opacity:1; fill:none" stroke-dasharray="16, 10" points="402.55,1268.47 573.228,1012.46 "/>
<circle clip-path="url(#clip082)" cx="402.55" cy="1268.47" r="14.4" fill="#ff0000" fill-rule="evenodd" fill-opacity="1" stroke="#000000" stroke-opacity="1" stroke-width="3.2"/>
<circle clip-path="url(#clip082)" cx="573.228" cy="1012.46" r="14.4" fill="#0000ff" fill-rule="evenodd" fill-opacity="1" stroke="#000000" stroke-opacity="1" stroke-width="3.2"/>
<polyline clip-path="url(#clip082)" style="stroke:#808080; stroke-linecap:round; stroke-linejoin:round; stroke-width:4; stroke-opacity:1; fill:none" stroke-dasharray="16, 10" points="1442.86,454.321 1216.7,499.551 "/>
<circle clip-path="url(#clip082)" cx="1442.86" cy="454.321" r="14.4" fill="#ff0000" fill-rule="evenodd" fill-opacity="1" stroke="#000000" stroke-opacity="1" stroke-width="3.2"/>
<circle clip-path="url(#clip082)" cx="1216.7" cy="499.551" r="14.4" fill="#0000ff" fill-rule="evenodd" fill-opacity="1" stroke="#000000" stroke-opacity="1" stroke-width="3.2"/>
<polyline clip-path="url(#clip082)" style="stroke:#808080; stroke-linecap:round; stroke-linejoin:round; stroke-width:4; stroke-opacity:1; fill:none" stroke-dasharray="16, 10" points="1442.86,137.706 1216.7,499.551 "/>
<circle clip-path="url(#clip082)" cx="1442.86" cy="137.706" r="14.4" fill="#ff0000" fill-rule="evenodd" fill-opacity="1" stroke="#000000" stroke-opacity="1" stroke-width="3.2"/>
<circle clip-path="url(#clip082)" cx="1216.7" cy="499.551" r="14.4" fill="#0000ff" fill-rule="evenodd" fill-opacity="1" stroke="#000000" stroke-opacity="1" stroke-width="3.2"/>
<polyline clip-path="url(#clip082)" style="stroke:#808080; stroke-linecap:round; stroke-linejoin:round; stroke-width:4; stroke-opacity:1; fill:none" stroke-dasharray="16, 10" points="402.55,997.089 538.242,951.858 "/>
<circle clip-path="url(#clip082)" cx="402.55" cy="997.089" r="14.4" fill="#ff0000" fill-rule="evenodd" fill-opacity="1" stroke="#000000" stroke-opacity="1" stroke-width="3.2"/>
<circle clip-path="url(#clip082)" cx="538.242" cy="951.858" r="14.4" fill="#0000ff" fill-rule="evenodd" fill-opacity="1" stroke="#000000" stroke-opacity="1" stroke-width="3.2"/>
<polyline clip-path="url(#clip082)" style="stroke:#808080; stroke-linecap:round; stroke-linejoin:round; stroke-width:4; stroke-opacity:1; fill:none" stroke-dasharray="16, 10" points="764.396,1313.7 764.396,1178.01 "/>
<circle clip-path="url(#clip082)" cx="764.396" cy="1313.7" r="14.4" fill="#ff0000" fill-rule="evenodd" fill-opacity="1" stroke="#000000" stroke-opacity="1" stroke-width="3.2"/>
<circle clip-path="url(#clip082)" cx="764.396" cy="1178.01" r="14.4" fill="#0000ff" fill-rule="evenodd" fill-opacity="1" stroke="#000000" stroke-opacity="1" stroke-width="3.2"/>
<polyline clip-path="url(#clip082)" style="stroke:#808080; stroke-linecap:round; stroke-linejoin:round; stroke-width:4; stroke-opacity:1; fill:none" stroke-dasharray="16, 10" points="945.319,816.166 945.319,816.166 "/>
<circle clip-path="url(#clip082)" cx="945.319" cy="816.166" r="14.4" fill="#ff0000" fill-rule="evenodd" fill-opacity="1" stroke="#000000" stroke-opacity="1" stroke-width="3.2"/>
<circle clip-path="url(#clip082)" cx="945.319" cy="816.166" r="14.4" fill="#0000ff" fill-rule="evenodd" fill-opacity="1" stroke="#000000" stroke-opacity="1" stroke-width="3.2"/>
<path clip-path="url(#clip080)" d="M1741 444.052 L2233.83 444.052 L2233.83 92.4748 L1741 92.4748  Z" fill="#ffffff" fill-rule="evenodd" fill-opacity="1"/>
<polyline clip-path="url(#clip080)" style="stroke:#000000; stroke-linecap:round; stroke-linejoin:round; stroke-width:4; stroke-opacity:1; fill:none" points="1741,444.052 2233.83,444.052 2233.83,92.4748 1741,92.4748 1741,444.052 "/>
<polyline clip-path="url(#clip080)" style="stroke:#009af9; stroke-linecap:round; stroke-linejoin:round; stroke-width:4; stroke-opacity:1; fill:none" points="1764.99,151.071 1908.97,151.071 "/>
<path clip-path="url(#clip080)" d="M1956.85 146.028 Q1956.85 147.34 1956.03 148.089 Q1955.21 148.815 1954.27 148.815 Q1953.38 148.815 1952.92 148.3 Q1952.45 147.785 1952.45 147.129 Q1952.45 146.239 1953.1 145.466 Q1953.76 144.693 1954.74 144.529 Q1953.78 143.92 1952.35 143.92 Q1951.42 143.92 1950.6 144.412 Q1949.8 144.904 1949.31 145.536 Q1948.84 146.169 1948.42 147.082 Q1948.02 147.972 1947.86 148.511 Q1947.72 149.026 1947.6 149.588 L1945.96 156.146 Q1945.16 159.262 1945.16 160.363 Q1945.16 161.721 1945.82 162.634 Q1946.48 163.525 1947.79 163.525 Q1948.3 163.525 1948.89 163.384 Q1949.47 163.22 1950.22 162.798 Q1951 162.353 1951.68 161.698 Q1952.38 161.018 1953.06 159.871 Q1953.74 158.723 1954.18 157.247 Q1954.32 156.732 1954.79 156.732 Q1955.38 156.732 1955.38 157.2 Q1955.38 157.599 1955.05 158.442 Q1954.74 159.262 1954.06 160.339 Q1953.41 161.393 1952.54 162.353 Q1951.68 163.29 1950.39 163.946 Q1949.1 164.602 1947.69 164.602 Q1945.68 164.602 1944.34 163.525 Q1943.01 162.447 1942.52 160.948 Q1942.4 161.159 1942.24 161.44 Q1942.07 161.721 1941.58 162.353 Q1941.11 162.962 1940.57 163.431 Q1940.03 163.876 1939.19 164.227 Q1938.37 164.602 1937.48 164.602 Q1936.36 164.602 1935.35 164.274 Q1934.37 163.946 1933.66 163.197 Q1932.96 162.447 1932.96 161.417 Q1932.96 160.269 1933.73 159.472 Q1934.53 158.653 1935.61 158.653 Q1936.29 158.653 1936.83 159.051 Q1937.39 159.449 1937.39 160.316 Q1937.39 161.276 1936.73 162.002 Q1936.08 162.728 1935.14 162.916 Q1936.1 163.525 1937.53 163.525 Q1939.07 163.525 1940.29 162.166 Q1941.51 160.808 1942.1 158.536 Q1943.55 153.078 1944.11 150.642 Q1944.67 148.183 1944.67 147.129 Q1944.67 146.145 1944.41 145.466 Q1944.16 144.787 1943.71 144.482 Q1943.29 144.154 1942.89 144.037 Q1942.52 143.92 1942.1 143.92 Q1941.39 143.92 1940.6 144.201 Q1939.82 144.482 1938.89 145.138 Q1937.97 145.77 1937.11 147.082 Q1936.24 148.394 1935.65 150.197 Q1935.54 150.736 1935.02 150.736 Q1934.46 150.712 1934.46 150.244 Q1934.46 149.846 1934.76 149.026 Q1935.09 148.183 1935.75 147.129 Q1936.43 146.075 1937.29 145.138 Q1938.18 144.178 1939.47 143.522 Q1940.78 142.866 1942.19 142.866 Q1942.82 142.866 1943.43 143.006 Q1944.06 143.124 1944.81 143.475 Q1945.59 143.826 1946.26 144.599 Q1946.94 145.372 1947.37 146.496 Q1947.65 145.958 1948.02 145.442 Q1948.42 144.927 1949.03 144.295 Q1949.66 143.639 1950.53 143.264 Q1951.42 142.866 1952.4 142.866 Q1953.36 142.866 1954.3 143.124 Q1955.24 143.358 1956.03 144.131 Q1956.85 144.88 1956.85 146.028 Z" fill="#000000" fill-rule="nonzero" fill-opacity="1" /><path clip-path="url(#clip080)" d="M2000 149.003 L1972.13 162.189 Q1971.57 162.447 1971.12 162.119 Q1970.68 161.791 1970.7 161.253 Q1970.73 160.714 1971.26 160.456 L1997.54 148.042 L1971.26 135.628 Q1970.73 135.371 1970.7 134.832 Q1970.68 134.293 1971.12 133.965 Q1971.57 133.637 1972.13 133.895 L2000 147.082 Q2000.61 147.363 2000.61 148.042 Q2000.61 148.722 2000 149.003 M2000.5 168.139 Q2000.78 168.42 2000.78 168.818 Q2000.78 169.216 2000.5 169.497 Q2000.21 169.778 1999.82 169.778 L1971.71 169.778 Q1971.31 169.778 1971.03 169.497 Q1970.75 169.216 1970.75 168.818 Q1970.75 168.42 1971.03 168.139 Q1971.31 167.858 1971.71 167.858 L1999.82 167.858 Q2000.21 167.858 2000.5 168.139 Z" fill="#000000" fill-rule="nonzero" fill-opacity="1" /><path clip-path="url(#clip080)" d="M2018.19 148.722 Q2018.19 141.671 2019.97 137.83 Q2022.45 132.115 2028.3 132.115 Q2029.55 132.115 2030.83 132.466 Q2032.15 132.794 2033.79 134.083 Q2035.45 135.371 2036.46 137.479 Q2038.38 141.554 2038.38 148.722 Q2038.38 155.725 2036.6 159.543 Q2034 165.117 2028.26 165.117 Q2026.1 165.117 2023.9 164.016 Q2021.72 162.916 2020.34 160.269 Q2018.19 156.31 2018.19 148.722 M2022.17 148.136 Q2022.17 155.374 2022.68 158.254 Q2023.27 161.37 2024.86 162.728 Q2026.48 164.063 2028.26 164.063 Q2030.18 164.063 2031.77 162.634 Q2033.39 161.182 2033.88 158.067 Q2034.42 154.999 2034.39 148.136 Q2034.39 141.461 2033.93 138.79 Q2033.29 135.675 2031.61 134.434 Q2029.94 133.169 2028.26 133.169 Q2027.62 133.169 2026.95 133.356 Q2026.29 133.544 2025.33 134.083 Q2024.37 134.621 2023.62 135.956 Q2022.89 137.291 2022.54 139.306 Q2022.17 141.906 2022.17 148.136 Z" fill="#000000" fill-rule="nonzero" fill-opacity="1" /><polyline clip-path="url(#clip080)" style="stroke:#e26f46; stroke-linecap:round; stroke-linejoin:round; stroke-width:4; stroke-opacity:1; fill:none" points="1764.99,209.667 1908.97,209.667 "/>
<path clip-path="url(#clip080)" d="M1955.09 201.25 Q1955.09 201.578 1954.88 202.351 L1950.29 220.667 Q1949.29 224.743 1946.01 227.6 Q1942.75 230.458 1939.05 230.458 Q1936.83 230.458 1935.4 229.263 Q1933.97 228.092 1933.97 226.289 Q1933.97 224.696 1934.81 223.923 Q1935.65 223.173 1936.66 223.173 Q1936.99 223.173 1937.34 223.267 Q1937.69 223.361 1938.07 223.759 Q1938.44 224.157 1938.44 224.836 Q1938.44 225.937 1937.48 226.804 Q1937.01 227.202 1936.57 227.296 Q1936.15 227.39 1935.42 227.39 Q1935.7 228.045 1936.22 228.49 Q1936.73 228.935 1937.32 229.099 Q1937.9 229.287 1938.28 229.334 Q1938.68 229.404 1939.05 229.404 Q1942.05 229.404 1944.34 226.382 Q1945.02 225.469 1945.51 224.555 Q1946.03 223.665 1946.4 222.564 Q1946.78 221.487 1946.94 220.902 Q1947.13 220.316 1947.46 218.981 Q1945.28 221.159 1942.61 221.159 Q1941.49 221.159 1940.48 220.855 Q1939.5 220.55 1938.63 219.918 Q1937.76 219.262 1937.25 218.114 Q1936.75 216.967 1936.75 215.444 Q1936.75 213.828 1937.39 211.626 Q1938.02 209.425 1939.54 205.372 Q1940.36 203.1 1940.36 202 Q1940.36 201.461 1940.24 201.133 Q1940.13 200.782 1939.89 200.665 Q1939.66 200.524 1939.52 200.501 Q1939.4 200.477 1939.17 200.477 Q1937.79 200.477 1936.5 201.882 Q1935.21 203.288 1934.32 206.426 Q1934.13 207.012 1934.01 207.153 Q1933.9 207.293 1933.55 207.293 Q1932.96 207.27 1932.96 206.801 Q1932.96 206.614 1933.17 205.888 Q1933.38 205.138 1933.87 204.037 Q1934.39 202.913 1935.09 201.906 Q1935.79 200.875 1936.9 200.149 Q1938.02 199.423 1939.31 199.423 Q1941.06 199.423 1942.14 200.571 Q1943.24 201.695 1943.24 203.358 Q1943.24 204.037 1943.06 204.646 Q1942.89 205.232 1942.28 206.801 Q1939.82 213.125 1939.82 216.217 Q1939.82 216.967 1939.94 217.599 Q1940.08 218.208 1940.39 218.817 Q1940.69 219.402 1941.3 219.754 Q1941.93 220.082 1942.8 220.082 Q1943.9 220.082 1944.93 219.566 Q1945.98 219.028 1946.64 218.302 Q1947.32 217.576 1947.72 216.967 Q1948.14 216.334 1948.23 216.006 L1950.39 207.387 L1951.35 203.545 Q1951.79 201.461 1952 200.946 Q1952.28 200.454 1952.78 200.196 Q1953.27 199.938 1953.69 199.938 Q1954.27 199.938 1954.67 200.29 Q1955.09 200.641 1955.09 201.25 Z" fill="#000000" fill-rule="nonzero" fill-opacity="1" /><path clip-path="url(#clip080)" d="M1996.11 205.56 L1968.24 218.747 Q1967.67 219.004 1967.23 218.676 Q1966.78 218.348 1966.81 217.81 Q1966.83 217.271 1967.37 217.013 L1993.65 204.599 L1967.37 192.186 Q1966.83 191.928 1966.81 191.389 Q1966.78 190.851 1967.23 190.523 Q1967.67 190.195 1968.24 190.452 L1996.11 203.639 Q1996.72 203.92 1996.72 204.599 Q1996.72 205.279 1996.11 205.56 M1996.6 224.696 Q1996.88 224.977 1996.88 225.375 Q1996.88 225.773 1996.6 226.054 Q1996.32 226.336 1995.92 226.336 L1967.81 226.336 Q1967.42 226.336 1967.13 226.054 Q1966.85 225.773 1966.85 225.375 Q1966.85 224.977 1967.13 224.696 Q1967.42 224.415 1967.81 224.415 L1995.92 224.415 Q1996.32 224.415 1996.6 224.696 Z" fill="#000000" fill-rule="nonzero" fill-opacity="1" /><path clip-path="url(#clip080)" d="M2014.29 205.279 Q2014.29 198.229 2016.07 194.387 Q2018.55 188.672 2024.41 188.672 Q2025.65 188.672 2026.94 189.024 Q2028.25 189.351 2029.89 190.64 Q2031.55 191.928 2032.56 194.036 Q2034.48 198.111 2034.48 205.279 Q2034.48 212.282 2032.7 216.1 Q2030.1 221.674 2024.36 221.674 Q2022.21 221.674 2020 220.574 Q2017.83 219.473 2016.44 216.826 Q2014.29 212.868 2014.29 205.279 M2018.27 204.693 Q2018.27 211.931 2018.79 214.812 Q2019.37 217.927 2020.96 219.285 Q2022.58 220.62 2024.36 220.62 Q2026.28 220.62 2027.87 219.192 Q2029.49 217.739 2029.98 214.624 Q2030.52 211.556 2030.5 204.693 Q2030.5 198.018 2030.03 195.348 Q2029.4 192.232 2027.71 190.991 Q2026.05 189.726 2024.36 189.726 Q2023.73 189.726 2023.05 189.914 Q2022.39 190.101 2021.43 190.64 Q2020.47 191.178 2019.72 192.514 Q2019 193.849 2018.65 195.863 Q2018.27 198.463 2018.27 204.693 Z" fill="#000000" fill-rule="nonzero" fill-opacity="1" /><polyline clip-path="url(#clip080)" style="stroke:#3da44d; stroke-linecap:round; stroke-linejoin:round; stroke-width:4; stroke-opacity:1; fill:none" points="1764.99,268.264 1908.97,268.264 "/>
<path clip-path="url(#clip080)" d="M1953.29 260.527 Q1953.29 260.691 1952.89 261.394 Q1952.52 262.073 1951.14 263.783 Q1949.75 265.492 1947.69 267.483 Q1946.92 268.256 1945.75 269.334 Q1944.58 270.411 1943.78 271.114 L1942.99 271.817 Q1939.94 274.393 1937.27 277.274 Q1937.46 277.204 1937.79 277.18 Q1938.11 277.133 1938.35 277.133 L1938.58 277.133 Q1939.8 277.133 1941.93 277.953 Q1943.81 278.562 1944.77 278.562 Q1945.7 278.562 1946.73 278.234 Q1947.76 277.906 1948.89 276.946 Q1950.01 275.986 1950.53 274.534 Q1950.62 274.299 1950.67 274.229 Q1950.71 274.135 1950.86 274.042 Q1951 273.925 1951.18 273.925 Q1951.44 273.925 1951.6 274.065 Q1951.77 274.206 1951.77 274.393 Q1951.77 274.815 1951.44 275.658 Q1951.14 276.501 1950.46 277.555 Q1949.8 278.609 1948.93 279.569 Q1948.09 280.506 1946.83 281.162 Q1945.56 281.794 1944.23 281.794 Q1943.27 281.794 1942.56 281.326 Q1941.86 280.881 1941.16 280.014 Q1940.2 278.914 1939.68 278.562 Q1939.17 278.187 1938.37 278.187 Q1936.24 278.187 1934.3 281.162 Q1934.08 281.584 1933.94 281.677 Q1933.83 281.794 1933.55 281.794 Q1932.96 281.771 1932.96 281.303 Q1932.96 281.115 1933.48 280.295 Q1934.01 279.452 1935.21 277.977 Q1936.43 276.501 1937.9 275.025 L1942.21 270.997 Q1946.99 266.968 1948.89 264.696 Q1948.09 264.696 1947.74 264.673 Q1947.41 264.649 1946.76 264.509 Q1946.1 264.345 1945.19 263.993 Q1943.06 263.267 1942.17 263.267 Q1941.93 263.267 1941.67 263.291 Q1941.42 263.314 1940.83 263.431 Q1940.27 263.548 1939.8 263.783 Q1939.33 263.993 1938.84 264.462 Q1938.35 264.907 1938.09 265.516 Q1938.02 265.703 1937.97 265.797 Q1937.93 265.891 1937.79 265.984 Q1937.67 266.055 1937.48 266.055 Q1937.2 266.055 1937.04 265.891 Q1936.9 265.727 1936.9 265.516 Q1936.9 265.094 1937.32 264.228 Q1937.74 263.361 1938.44 262.424 Q1939.14 261.464 1940.29 260.761 Q1941.44 260.058 1942.7 260.058 Q1943.45 260.058 1944.09 260.386 Q1944.74 260.714 1945.07 261.066 Q1945.42 261.394 1946.01 262.12 Q1946.5 262.682 1946.73 262.916 Q1946.97 263.15 1947.44 263.408 Q1947.93 263.642 1948.47 263.642 Q1949.36 263.642 1950.18 262.963 Q1951 262.26 1952.05 260.574 Q1952.33 260.058 1952.78 260.058 Q1953.29 260.058 1953.29 260.527 Z" fill="#000000" fill-rule="nonzero" fill-opacity="1" /><path clip-path="url(#clip080)" d="M1994.92 266.195 L1967.05 279.382 Q1966.49 279.64 1966.04 279.312 Q1965.6 278.984 1965.62 278.445 Q1965.65 277.906 1966.19 277.649 L1992.47 265.235 L1966.19 252.821 Q1965.65 252.563 1965.62 252.025 Q1965.6 251.486 1966.04 251.158 Q1966.49 250.83 1967.05 251.088 L1994.92 264.274 Q1995.53 264.556 1995.53 265.235 Q1995.53 265.914 1994.92 266.195 M1995.42 285.331 Q1995.7 285.612 1995.7 286.011 Q1995.7 286.409 1995.42 286.69 Q1995.14 286.971 1994.74 286.971 L1966.63 286.971 Q1966.23 286.971 1965.95 286.69 Q1965.67 286.409 1965.67 286.011 Q1965.67 285.612 1965.95 285.331 Q1966.23 285.05 1966.63 285.05 L1994.74 285.05 Q1995.14 285.05 1995.42 285.331 Z" fill="#000000" fill-rule="nonzero" fill-opacity="1" /><path clip-path="url(#clip080)" d="M2013.11 265.914 Q2013.11 258.864 2014.89 255.023 Q2017.37 249.308 2023.22 249.308 Q2024.47 249.308 2025.75 249.659 Q2027.07 249.987 2028.71 251.275 Q2030.37 252.563 2031.38 254.671 Q2033.3 258.747 2033.3 265.914 Q2033.3 272.917 2031.52 276.735 Q2028.92 282.31 2023.18 282.31 Q2021.02 282.31 2018.82 281.209 Q2016.64 280.108 2015.26 277.461 Q2013.11 273.503 2013.11 265.914 M2017.09 265.328 Q2017.09 272.566 2017.6 275.447 Q2018.19 278.562 2019.78 279.921 Q2021.4 281.256 2023.18 281.256 Q2025.1 281.256 2026.69 279.827 Q2028.31 278.375 2028.8 275.26 Q2029.34 272.191 2029.31 265.328 Q2029.31 258.653 2028.85 255.983 Q2028.21 252.868 2026.53 251.626 Q2024.86 250.362 2023.18 250.362 Q2022.55 250.362 2021.87 250.549 Q2021.21 250.736 2020.25 251.275 Q2019.29 251.814 2018.54 253.149 Q2017.81 254.484 2017.46 256.498 Q2017.09 259.098 2017.09 265.328 Z" fill="#000000" fill-rule="nonzero" fill-opacity="1" /><circle clip-path="url(#clip080)" cx="1836.98" cy="326.86" r="20.48" fill="#ff0000" fill-rule="evenodd" fill-opacity="1" stroke="#000000" stroke-opacity="1" stroke-width="4.55111"/>
<path clip-path="url(#clip080)" d="M1958.02 327.682 Q1958.02 331.102 1956.29 334.405 Q1954.58 337.707 1951.89 339.745 Q1949.19 341.759 1946.45 341.759 Q1944.81 341.759 1943.71 340.869 Q1942.63 339.956 1942.05 338.667 Q1941.6 340.26 1940.64 344.078 Q1939.68 347.896 1939.68 348.271 Q1939.68 348.481 1939.73 348.575 Q1939.78 348.669 1939.99 348.786 Q1940.2 348.926 1940.71 348.973 Q1941.23 349.044 1942.1 349.044 Q1942.54 349.044 1942.7 349.044 Q1942.89 349.067 1943.06 349.184 Q1943.24 349.301 1943.24 349.559 Q1943.24 350.519 1942.38 350.519 Q1941.6 350.519 1940.01 350.449 Q1938.42 350.379 1937.62 350.379 Q1936.94 350.379 1935.58 350.449 Q1934.23 350.519 1933.59 350.519 Q1932.96 350.519 1932.96 349.957 Q1932.96 349.629 1933.05 349.418 Q1933.12 349.231 1933.31 349.137 Q1933.5 349.067 1933.66 349.044 Q1933.8 349.044 1934.08 349.044 Q1935.16 349.044 1935.63 348.856 Q1936.1 348.692 1936.26 348.341 Q1936.45 348.013 1936.66 347.076 L1942.05 325.715 Q1942.38 324.286 1942.38 323.279 Q1942.38 322.014 1941.98 321.546 Q1941.58 321.077 1940.88 321.077 Q1939.66 321.077 1938.86 322.529 Q1938.07 323.982 1937.39 326.792 Q1937.18 327.565 1937.04 327.729 Q1936.92 327.893 1936.57 327.893 Q1935.98 327.87 1935.98 327.401 Q1935.98 327.284 1936.17 326.535 Q1936.36 325.762 1936.71 324.637 Q1937.08 323.49 1937.48 322.764 Q1937.72 322.272 1937.93 321.944 Q1938.14 321.616 1938.56 321.101 Q1939 320.585 1939.64 320.304 Q1940.27 320.023 1941.04 320.023 Q1942.54 320.023 1943.78 320.913 Q1945.02 321.803 1945.35 323.607 Q1946.69 322.037 1948.33 321.03 Q1949.97 320.023 1951.63 320.023 Q1954.39 320.023 1956.2 322.178 Q1958.02 324.309 1958.02 327.682 M1954.56 325.574 Q1954.56 323.443 1953.74 322.272 Q1952.94 321.077 1951.49 321.077 Q1949.68 321.077 1947.6 322.904 Q1945.54 324.637 1945.12 326.253 L1942.75 335.646 L1942.61 336.419 Q1942.61 336.559 1942.68 336.981 Q1942.77 337.379 1943.03 338.035 Q1943.31 338.691 1943.69 339.276 Q1944.09 339.839 1944.79 340.26 Q1945.51 340.682 1946.4 340.682 Q1947.83 340.682 1949.38 339.417 Q1950.95 338.152 1952.12 335.763 Q1952.85 334.217 1953.69 330.891 Q1954.56 327.542 1954.56 325.574 Z" fill="#000000" fill-rule="nonzero" fill-opacity="1" /><path clip-path="url(#clip080)" d="M1976.63 304.568 Q1976.63 304.814 1976.45 305.175 Q1976.29 305.503 1975.94 305.716 Q1975.62 305.913 1975.26 305.913 Q1975.14 305.913 1974.88 305.847 Q1974.44 305.65 1973.75 305.208 Q1973.06 304.765 1972.44 304.486 Q1971.83 304.191 1971.16 304.158 Q1970.57 304.158 1970.07 304.372 Q1969.63 304.617 1969.34 305.142 Q1969.21 305.355 1969.21 305.716 Q1969.21 306.224 1969.48 306.896 Q1969.76 307.569 1970.34 308.438 Q1970.93 309.307 1971.35 309.897 Q1971.78 310.471 1972.52 311.422 Q1972.58 311.504 1972.62 311.553 Q1972.65 311.586 1972.7 311.668 Q1972.75 311.733 1972.8 311.782 Q1974.35 313.733 1974.75 315.881 Q1974.85 316.636 1974.85 317.423 Q1974.85 318.996 1974.37 320.849 Q1973.96 322.538 1973.09 323.997 Q1972.22 325.44 1970.91 326.391 Q1969.62 327.342 1968.21 327.342 Q1966.81 327.342 1965.66 326.735 Q1964.52 326.112 1963.83 325.047 Q1962.89 323.636 1962.89 321.685 Q1962.89 320.587 1963.16 319.652 Q1963.52 318.16 1964.37 316.783 Q1965.22 315.406 1966.45 314.34 Q1968.32 312.766 1970.35 312.323 Q1969.4 310.52 1968.84 309.126 Q1968.3 307.716 1968.3 306.519 Q1968.3 305.47 1968.7 304.798 Q1969.04 304.076 1969.75 303.667 Q1970.34 303.306 1971.19 303.125 Q1971.71 303.06 1972.06 303.06 Q1973.22 303.06 1975.93 303.699 Q1976.63 303.863 1976.63 304.568 M1972.53 318.767 Q1972.53 317.767 1972.37 317.095 Q1972.06 315.455 1970.81 313.192 L1970.71 313.028 Q1969.12 313.488 1967.83 314.881 Q1966.2 316.586 1965.39 319.816 Q1964.94 321.62 1964.94 322.636 Q1964.94 323.735 1965.35 324.686 Q1965.75 325.571 1966.48 326.079 Q1967.24 326.588 1968.24 326.588 Q1968.99 326.588 1969.65 326.161 Q1970.3 325.719 1970.78 324.948 Q1971.25 324.178 1971.58 323.341 Q1971.93 322.489 1972.19 321.489 Q1972.53 320.144 1972.53 318.767 Z" fill="#000000" fill-rule="nonzero" fill-opacity="1" /><circle clip-path="url(#clip080)" cx="1836.98" cy="385.456" r="20.48" fill="#0000ff" fill-rule="evenodd" fill-opacity="1" stroke="#000000" stroke-opacity="1" stroke-width="4.55111"/>
<path clip-path="url(#clip080)" d="M1958.02 392.013 Q1958.02 395.433 1956.29 398.735 Q1954.58 402.038 1951.89 404.075 Q1949.19 406.09 1946.45 406.09 Q1944.81 406.09 1943.71 405.2 Q1942.63 404.286 1942.05 402.998 Q1941.6 404.591 1940.64 408.409 Q1939.68 412.226 1939.68 412.601 Q1939.68 412.812 1939.73 412.906 Q1939.78 412.999 1939.99 413.117 Q1940.2 413.257 1940.71 413.304 Q1941.23 413.374 1942.1 413.374 Q1942.54 413.374 1942.7 413.374 Q1942.89 413.398 1943.06 413.515 Q1943.24 413.632 1943.24 413.889 Q1943.24 414.85 1942.38 414.85 Q1941.6 414.85 1940.01 414.78 Q1938.42 414.709 1937.62 414.709 Q1936.94 414.709 1935.58 414.78 Q1934.23 414.85 1933.59 414.85 Q1932.96 414.85 1932.96 414.288 Q1932.96 413.96 1933.05 413.749 Q1933.12 413.562 1933.31 413.468 Q1933.5 413.398 1933.66 413.374 Q1933.8 413.374 1934.08 413.374 Q1935.16 413.374 1935.63 413.187 Q1936.1 413.023 1936.26 412.671 Q1936.45 412.344 1936.66 411.407 L1942.05 390.045 Q1942.38 388.617 1942.38 387.609 Q1942.38 386.345 1941.98 385.876 Q1941.58 385.408 1940.88 385.408 Q1939.66 385.408 1938.86 386.86 Q1938.07 388.312 1937.39 391.123 Q1937.18 391.896 1937.04 392.06 Q1936.92 392.224 1936.57 392.224 Q1935.98 392.2 1935.98 391.732 Q1935.98 391.615 1936.17 390.865 Q1936.36 390.092 1936.71 388.968 Q1937.08 387.82 1937.48 387.094 Q1937.72 386.602 1937.93 386.274 Q1938.14 385.946 1938.56 385.431 Q1939 384.916 1939.64 384.635 Q1940.27 384.354 1941.04 384.354 Q1942.54 384.354 1943.78 385.244 Q1945.02 386.134 1945.35 387.937 Q1946.69 386.368 1948.33 385.361 Q1949.97 384.354 1951.63 384.354 Q1954.39 384.354 1956.2 386.509 Q1958.02 388.64 1958.02 392.013 M1954.56 389.905 Q1954.56 387.773 1953.74 386.602 Q1952.94 385.408 1951.49 385.408 Q1949.68 385.408 1947.6 387.235 Q1945.54 388.968 1945.12 390.584 L1942.75 399.977 L1942.61 400.749 Q1942.61 400.89 1942.68 401.312 Q1942.77 401.71 1943.03 402.366 Q1943.31 403.021 1943.69 403.607 Q1944.09 404.169 1944.79 404.591 Q1945.51 405.012 1946.4 405.012 Q1947.83 405.012 1949.38 403.748 Q1950.95 402.483 1952.12 400.094 Q1952.85 398.548 1953.69 395.222 Q1954.56 391.872 1954.56 389.905 Z" fill="#000000" fill-rule="nonzero" fill-opacity="1" /><path clip-path="url(#clip080)" d="M1976.63 369.26 Q1976.63 369.506 1976.45 369.866 Q1976.29 370.194 1975.94 370.408 Q1975.62 370.604 1975.26 370.604 Q1975.14 370.604 1974.88 370.539 Q1974.44 370.342 1973.75 369.899 Q1973.06 369.457 1972.44 369.178 Q1971.83 368.883 1971.16 368.85 Q1970.57 368.85 1970.07 369.063 Q1969.63 369.309 1969.34 369.834 Q1969.21 370.047 1969.21 370.408 Q1969.21 370.916 1969.48 371.588 Q1969.76 372.26 1970.34 373.129 Q1970.93 373.998 1971.35 374.588 Q1971.78 375.162 1972.52 376.113 Q1972.58 376.195 1972.62 376.244 Q1972.65 376.277 1972.7 376.359 Q1972.75 376.425 1972.8 376.474 Q1974.35 378.425 1974.75 380.573 Q1974.85 381.327 1974.85 382.114 Q1974.85 383.688 1974.37 385.541 Q1973.96 387.23 1973.09 388.689 Q1972.22 390.132 1970.91 391.083 Q1969.62 392.033 1968.21 392.033 Q1966.81 392.033 1965.66 391.427 Q1964.52 390.804 1963.83 389.738 Q1962.89 388.328 1962.89 386.377 Q1962.89 385.278 1963.16 384.344 Q1963.52 382.852 1964.37 381.475 Q1965.22 380.097 1966.45 379.032 Q1968.32 377.458 1970.35 377.015 Q1969.4 375.211 1968.84 373.818 Q1968.3 372.408 1968.3 371.211 Q1968.3 370.162 1968.7 369.489 Q1969.04 368.768 1969.75 368.358 Q1970.34 367.997 1971.19 367.817 Q1971.71 367.751 1972.06 367.751 Q1973.22 367.751 1975.93 368.391 Q1976.63 368.555 1976.63 369.26 M1972.53 383.459 Q1972.53 382.458 1972.37 381.786 Q1972.06 380.147 1970.81 377.884 L1970.71 377.72 Q1969.12 378.179 1967.83 379.573 Q1966.2 381.278 1965.39 384.508 Q1964.94 386.311 1964.94 387.328 Q1964.94 388.426 1965.35 389.377 Q1965.75 390.263 1966.48 390.771 Q1967.24 391.279 1968.24 391.279 Q1968.99 391.279 1969.65 390.853 Q1970.3 390.41 1970.78 389.64 Q1971.25 388.869 1971.58 388.033 Q1971.93 387.18 1972.19 386.18 Q1972.53 384.836 1972.53 383.459 Z" fill="#000000" fill-rule="nonzero" fill-opacity="1" /><path clip-path="url(#clip080)" d="M1984.06 367.817 Q1984.06 368.211 1983.86 368.456 L1978.55 377.212 L1977.65 377.212 L1981.68 367.243 Q1981.78 366.948 1982.09 366.751 Q1982.41 366.538 1982.78 366.538 Q1983.31 366.538 1983.68 366.915 Q1984.06 367.292 1984.06 367.817 Z" fill="#000000" fill-rule="nonzero" fill-opacity="1" /><path clip-path="url(#clip080)" d="M2006.4 398.267 Q2006.45 397.681 2007.36 397.681 L2036.76 397.681 Q2038.14 397.681 2038.16 398.22 Q2038.16 398.805 2036.85 398.782 L2007.69 398.782 Q2006.4 398.805 2006.4 398.267 M2006.4 388.898 Q2006.4 388.312 2007.41 388.336 L2036.71 388.336 Q2038.14 388.336 2038.16 388.898 Q2038.16 389.436 2036.94 389.436 L2007.36 389.436 Q2006.4 389.436 2006.4 388.898 Z" fill="#000000" fill-rule="nonzero" fill-opacity="1" /><path clip-path="url(#clip080)" d="M2090.9 380.021 Q2090.9 382.644 2088.95 385.056 Q2087.03 387.469 2083.89 388.945 Q2080.78 390.397 2077.43 390.397 L2069.28 390.397 L2066.3 402.389 Q2066.28 402.459 2066.21 402.764 Q2066.14 403.045 2066.14 403.209 Q2066.14 403.794 2066.87 403.935 Q2067.61 404.075 2069.28 404.075 Q2070.36 404.075 2070.52 404.263 Q2070.61 404.38 2070.61 404.591 Q2070.61 404.919 2070.52 405.153 Q2070.43 405.364 2070.24 405.434 Q2070.07 405.504 2069.96 405.528 Q2069.84 405.551 2069.65 405.551 Q2069.16 405.551 2068.11 405.504 Q2067.08 405.457 2066.54 405.457 L2063.47 405.411 L2057.38 405.551 Q2056.65 405.551 2056.65 404.965 Q2056.65 404.52 2056.84 404.333 Q2057.03 404.122 2057.24 404.099 Q2057.45 404.075 2057.99 404.075 Q2059.16 404.075 2059.86 404.005 Q2060.56 403.935 2061.01 403.841 Q2061.48 403.724 2061.71 403.396 Q2061.97 403.068 2062.09 402.787 Q2062.2 402.483 2062.37 401.803 L2068.79 376.039 Q2068.97 375.266 2068.97 375.149 Q2068.97 374.751 2068.74 374.61 Q2068.53 374.446 2067.92 374.376 Q2066.75 374.282 2065.86 374.282 Q2065.27 374.282 2065.04 374.259 Q2064.83 374.235 2064.64 374.118 Q2064.48 373.978 2064.48 373.697 Q2064.48 373.252 2064.66 373.064 Q2064.87 372.853 2065.11 372.83 Q2065.34 372.783 2065.9 372.783 L2081.46 372.783 Q2085.93 372.783 2088.41 374.915 Q2090.9 377.046 2090.9 380.021 M2086.45 378.873 Q2086.45 374.282 2079.91 374.282 L2075.32 374.282 Q2073.8 374.282 2073.42 374.563 Q2073.05 374.821 2072.72 376.109 L2069.47 389.155 L2076.23 389.155 Q2080.78 389.155 2083.61 386.602 Q2084.9 385.431 2085.67 382.995 Q2086.45 380.559 2086.45 378.873 Z" fill="#000000" fill-rule="nonzero" fill-opacity="1" /><path clip-path="url(#clip080)" d="M2109.42 357.43 Q2109.42 357.676 2109.24 358.037 Q2109.07 358.365 2108.73 358.578 Q2108.4 358.775 2108.04 358.775 Q2107.93 358.775 2107.66 358.709 Q2107.22 358.512 2106.53 358.07 Q2105.84 357.627 2105.22 357.348 Q2104.61 357.053 2103.94 357.02 Q2103.35 357.02 2102.86 357.233 Q2102.42 357.479 2102.12 358.004 Q2101.99 358.217 2101.99 358.578 Q2101.99 359.086 2102.27 359.758 Q2102.55 360.431 2103.12 361.3 Q2103.71 362.169 2104.14 362.759 Q2104.57 363.333 2105.3 364.284 Q2105.37 364.366 2105.4 364.415 Q2105.43 364.448 2105.48 364.529 Q2105.53 364.595 2105.58 364.644 Q2107.14 366.595 2107.53 368.743 Q2107.63 369.497 2107.63 370.284 Q2107.63 371.858 2107.16 373.711 Q2106.75 375.4 2105.88 376.859 Q2105.01 378.302 2103.7 379.253 Q2102.4 380.204 2100.99 380.204 Q2099.6 380.204 2098.45 379.597 Q2097.3 378.974 2096.61 377.908 Q2095.68 376.498 2095.68 374.547 Q2095.68 373.449 2095.94 372.514 Q2096.3 371.022 2097.15 369.645 Q2098.01 368.268 2099.24 367.202 Q2101.11 365.628 2103.14 365.185 Q2102.19 363.382 2101.63 361.988 Q2101.09 360.578 2101.09 359.381 Q2101.09 358.332 2101.48 357.66 Q2101.83 356.938 2102.53 356.528 Q2103.12 356.168 2103.98 355.987 Q2104.5 355.922 2104.84 355.922 Q2106.01 355.922 2108.71 356.561 Q2109.42 356.725 2109.42 357.43 M2105.32 371.629 Q2105.32 370.629 2105.16 369.956 Q2104.84 368.317 2103.6 366.054 L2103.5 365.89 Q2101.91 366.349 2100.61 367.743 Q2098.99 369.448 2098.17 372.678 Q2097.73 374.482 2097.73 375.498 Q2097.73 376.597 2098.14 377.548 Q2098.53 378.433 2099.27 378.941 Q2100.02 379.45 2101.02 379.45 Q2101.78 379.45 2102.43 379.023 Q2103.09 378.581 2103.57 377.81 Q2104.04 377.039 2104.37 376.203 Q2104.71 375.351 2104.98 374.351 Q2105.32 373.006 2105.32 371.629 Z" fill="#000000" fill-rule="nonzero" fill-opacity="1" /><path clip-path="url(#clip080)" d="M2114.39 391.075 Q2114.39 383.034 2117.39 376.55 Q2118.67 373.832 2120.46 371.554 Q2122.25 369.277 2123.43 368.277 Q2124.62 367.278 2124.95 367.278 Q2125.41 367.278 2125.43 367.743 Q2125.43 367.975 2124.81 368.556 Q2117.14 376.365 2117.16 391.075 Q2117.16 405.831 2124.62 413.337 Q2125.43 414.151 2125.43 414.406 Q2125.43 414.871 2124.95 414.871 Q2124.62 414.871 2123.48 413.918 Q2122.34 412.966 2120.58 410.781 Q2118.81 408.597 2117.53 405.924 Q2114.39 399.441 2114.39 391.075 Z" fill="#000000" fill-rule="nonzero" fill-opacity="1" /><path clip-path="url(#clip080)" d="M2162.85 392.013 Q2162.85 395.433 2161.12 398.735 Q2159.41 402.038 2156.72 404.075 Q2154.02 406.09 2151.28 406.09 Q2149.64 406.09 2148.54 405.2 Q2147.46 404.286 2146.88 402.998 Q2146.43 404.591 2145.47 408.409 Q2144.51 412.226 2144.51 412.601 Q2144.51 412.812 2144.56 412.906 Q2144.61 412.999 2144.82 413.117 Q2145.03 413.257 2145.54 413.304 Q2146.06 413.374 2146.93 413.374 Q2147.37 413.374 2147.53 413.374 Q2147.72 413.398 2147.89 413.515 Q2148.07 413.632 2148.07 413.889 Q2148.07 414.85 2147.21 414.85 Q2146.43 414.85 2144.84 414.78 Q2143.25 414.709 2142.45 414.709 Q2141.77 414.709 2140.41 414.78 Q2139.06 414.85 2138.42 414.85 Q2137.79 414.85 2137.79 414.288 Q2137.79 413.96 2137.88 413.749 Q2137.95 413.562 2138.14 413.468 Q2138.33 413.398 2138.49 413.374 Q2138.63 413.374 2138.92 413.374 Q2139.99 413.374 2140.46 413.187 Q2140.93 413.023 2141.09 412.671 Q2141.28 412.344 2141.49 411.407 L2146.88 390.045 Q2147.21 388.617 2147.21 387.609 Q2147.21 386.345 2146.81 385.876 Q2146.41 385.408 2145.71 385.408 Q2144.49 385.408 2143.69 386.86 Q2142.9 388.312 2142.22 391.123 Q2142.01 391.896 2141.87 392.06 Q2141.75 392.224 2141.4 392.224 Q2140.81 392.2 2140.81 391.732 Q2140.81 391.615 2141 390.865 Q2141.19 390.092 2141.54 388.968 Q2141.91 387.82 2142.31 387.094 Q2142.55 386.602 2142.76 386.274 Q2142.97 385.946 2143.39 385.431 Q2143.83 384.916 2144.47 384.635 Q2145.1 384.354 2145.87 384.354 Q2147.37 384.354 2148.61 385.244 Q2149.85 386.134 2150.18 387.937 Q2151.52 386.368 2153.16 385.361 Q2154.8 384.354 2156.46 384.354 Q2159.22 384.354 2161.03 386.509 Q2162.85 388.64 2162.85 392.013 M2159.39 389.905 Q2159.39 387.773 2158.57 386.602 Q2157.77 385.408 2156.32 385.408 Q2154.51 385.408 2152.43 387.235 Q2150.37 388.968 2149.95 390.584 L2147.58 399.977 L2147.44 400.749 Q2147.44 400.89 2147.51 401.312 Q2147.6 401.71 2147.86 402.366 Q2148.14 403.021 2148.52 403.607 Q2148.92 404.169 2149.62 404.591 Q2150.35 405.012 2151.24 405.012 Q2152.66 405.012 2154.21 403.748 Q2155.78 402.483 2156.95 400.094 Q2157.68 398.548 2158.52 395.222 Q2159.39 391.872 2159.39 389.905 Z" fill="#000000" fill-rule="nonzero" fill-opacity="1" /><path clip-path="url(#clip080)" d="M2181.46 368.899 Q2181.46 369.145 2181.28 369.506 Q2181.12 369.833 2180.77 370.047 Q2180.45 370.243 2180.09 370.243 Q2179.97 370.243 2179.71 370.178 Q2179.27 369.981 2178.58 369.538 Q2177.89 369.096 2177.27 368.817 Q2176.66 368.522 2175.99 368.489 Q2175.4 368.489 2174.9 368.702 Q2174.46 368.948 2174.17 369.473 Q2174.04 369.686 2174.04 370.047 Q2174.04 370.555 2174.31 371.227 Q2174.59 371.899 2175.17 372.768 Q2175.76 373.637 2176.18 374.228 Q2176.61 374.801 2177.35 375.752 Q2177.41 375.834 2177.45 375.883 Q2177.48 375.916 2177.53 375.998 Q2177.58 376.064 2177.63 376.113 Q2179.18 378.064 2179.58 380.212 Q2179.68 380.966 2179.68 381.753 Q2179.68 383.327 2179.2 385.18 Q2178.79 386.869 2177.92 388.328 Q2177.05 389.771 2175.74 390.722 Q2174.45 391.673 2173.04 391.673 Q2171.64 391.673 2170.49 391.066 Q2169.35 390.443 2168.66 389.377 Q2167.72 387.967 2167.72 386.016 Q2167.72 384.918 2167.99 383.983 Q2168.35 382.491 2169.2 381.114 Q2170.05 379.736 2171.28 378.671 Q2173.15 377.097 2175.18 376.654 Q2174.23 374.851 2173.67 373.457 Q2173.13 372.047 2173.13 370.85 Q2173.13 369.801 2173.53 369.128 Q2173.87 368.407 2174.58 367.997 Q2175.17 367.636 2176.02 367.456 Q2176.54 367.39 2176.89 367.39 Q2178.05 367.39 2180.76 368.03 Q2181.46 368.194 2181.46 368.899 M2177.36 383.098 Q2177.36 382.097 2177.2 381.425 Q2176.89 379.786 2175.64 377.523 L2175.54 377.359 Q2173.95 377.818 2172.66 379.212 Q2171.04 380.917 2170.22 384.147 Q2169.77 385.95 2169.77 386.967 Q2169.77 388.065 2170.18 389.016 Q2170.58 389.902 2171.31 390.41 Q2172.07 390.918 2173.07 390.918 Q2173.82 390.918 2174.48 390.492 Q2175.13 390.049 2175.61 389.279 Q2176.09 388.508 2176.41 387.672 Q2176.76 386.819 2177.02 385.819 Q2177.36 384.475 2177.36 383.098 Z" fill="#000000" fill-rule="nonzero" fill-opacity="1" /><path clip-path="url(#clip080)" d="M2191.56 414.406 Q2191.56 414.174 2192.16 413.593 Q2199.83 405.785 2199.83 391.075 Q2199.83 376.318 2192.46 368.858 Q2191.56 367.999 2191.56 367.743 Q2191.56 367.278 2192.02 367.278 Q2192.35 367.278 2193.49 368.231 Q2194.65 369.184 2196.39 371.368 Q2198.16 373.553 2199.46 376.225 Q2202.6 382.709 2202.6 391.075 Q2202.6 399.115 2199.6 405.599 Q2198.32 408.318 2196.53 410.595 Q2194.74 412.873 2193.56 413.872 Q2192.37 414.871 2192.02 414.871 Q2191.56 414.871 2191.56 414.406 Z" fill="#000000" fill-rule="nonzero" fill-opacity="1" /></svg>
